# xmcd
#
# Track frame offsets:
# 155
# 23320
# 44590
# 70052
# 94490
# 116062
# 143015
# 161270
# 179975
# 203057
# 226340
#
# Disc length: 3265 seconds
#
# Revision: 2
# Processed by: cddbd v1.5.2PL0 Copyright (c) Steve Scherf et al.
# Submitted via: plextools 2.35
#
DISCID=940cbf0b
DTITLE=Jesus Volt - Electro Button 
DYEAR=2003
DGENRE=Blues
TTITLE0=Jesus Volt - The Cornbread (pt1)
TTITLE1=Jesus Volt - Funky Mama
TTITLE2=Jesus Volt - Creeping Kingsnake
TTITLE3=Jesus Volt - Mannish Boy
TTITLE4=Jesus Volt - Black Bone Dust
TTITLE5=Jesus Volt - Hard Times
TTITLE6=Jesus Volt - Women Fall Down From The Sky
TTITLE7=Jesus Volt - I Ain't Afraid (of women with strong breast)
TTITLE8=Jesus Volt - Call It Love
TTITLE9=Jesus Volt - Help Me
TTITLE10=Jesus Volt - Bonus Track - Route 666
EXTD=
EXTT0=
EXTT1=
EXTT2=
EXTT3=
EXTT4=
EXTT5=
EXTT6=
EXTT7=
EXTT8=
EXTT9=
EXTT10=
PLAYORDER=
